<?xml version="1.0" encoding="UTF-8" standalone="no"?>
<!-- Created with Inkscape (http://www.inkscape.org/) -->

<svg
   xmlns:dc="http://purl.org/dc/elements/1.1/"
   xmlns:cc="http://creativecommons.org/ns#"
   xmlns:rdf="http://www.w3.org/1999/02/22-rdf-syntax-ns#"
   xmlns:svg="http://www.w3.org/2000/svg"
   xmlns="http://www.w3.org/2000/svg"
   xmlns:sodipodi="http://sodipodi.sourceforge.net/DTD/sodipodi-0.dtd"
   xmlns:inkscape="http://www.inkscape.org/namespaces/inkscape"
   width="100"
   height="50"
   viewBox="0 0 26.458333 13.229167"
   version="1.1"
   id="svg8"
   inkscape:version="0.92.5 (2060ec1f9f, 2020-04-08)"
   sodipodi:docname="fleuron.svg">
  <defs
     id="defs2" />
  <sodipodi:namedview
     id="base"
     pagecolor="#ffffff"
     bordercolor="#666666"
     borderopacity="1.0"
     inkscape:pageopacity="0.0"
     inkscape:pageshadow="2"
     inkscape:zoom="3.959798"
     inkscape:cx="36.90864"
     inkscape:cy="-11.050055"
     inkscape:document-units="mm"
     inkscape:current-layer="text3715"
     showgrid="false"
     units="px"
     inkscape:window-width="1366"
     inkscape:window-height="704"
     inkscape:window-x="0"
     inkscape:window-y="27"
     inkscape:window-maximized="1" />
  <metadata
     id="metadata5">
    <rdf:RDF>
      <cc:Work
         rdf:about="">
        <dc:format>image/svg+xml</dc:format>
        <dc:type
           rdf:resource="http://purl.org/dc/dcmitype/StillImage" />
        <dc:title></dc:title>
      </cc:Work>
    </rdf:RDF>
  </metadata>
  <g
     inkscape:label="Layer 1"
     inkscape:groupmode="layer"
     id="layer1"
     transform="translate(0,-283.77082)">
    <g
       aria-label="🙞"
       style="font-style:normal;font-weight:normal;font-size:17.26507187px;line-height:1.25;font-family:sans-serif;letter-spacing:0px;word-spacing:0px;fill:#000000;fill-opacity:1;stroke:none;stroke-width:0.43162677"
       id="text3715">
      <path
         d="m 11.414919,296.85511 q -0.517952,0 -1.087699,-0.27624 -0.5524827,-0.25898 -1.0531698,-0.7424 -0.500687,-0.50069 -0.8114583,-1.13949 -0.3107713,-0.65608 -0.3107713,-1.41574 0,-0.86325 0.4488918,-1.46753 0.4488919,-0.60428 1.19129,-0.60428 0.4143616,0 0.7596636,0.18992 0.345301,0.18991 0.569747,0.44889 0.241711,0.25898 0.362566,0.48342 0.138121,0.22445 0.138121,0.31077 0,0.0518 -0.0518,0.0518 -0.08633,0 -0.172651,-0.0345 -0.08632,-0.0518 -0.379832,-0.0518 -0.500687,0 -0.966844,0.18992 -0.4661565,0.18991 -0.7769278,0.53522 -0.2935062,0.32803 -0.2935062,0.77692 0,0.43163 0.2935062,0.70787 0.2935063,0.25898 0.7423978,0.25898 0.552483,0 1.12223,-0.3453 0.587012,-0.36257 1.19129,-0.94958 0.604277,-0.60428 1.208555,-1.31215 0.621543,-0.70787 1.243085,-1.41573 -0.966844,-0.43163 -2.106339,-0.70787 -1.122229,-0.29351 -2.468905,-0.25898 -1.2430851,0.0173 -2.2099291,0.46616 -0.966844,0.44889 -1.5193263,1.17402 -0.5352172,0.70787 -0.5352172,1.57113 0,0.48342 0.1208555,0.77692 0.1381205,0.29351 0.258976,0.46616 0.1381206,0.15539 0.1381206,0.22445 0,0.0691 -0.086325,0.0691 -0.1035905,0 -0.3970967,-0.18992 -0.2935062,-0.18991 -0.6215426,-0.56975 -0.3280363,-0.37983 -0.5697474,-0.91505 -0.241711,-0.55248 -0.241711,-1.26035 0,-0.67333 0.2762412,-1.32941 0.2762411,-0.67333 0.8459885,-1.22582 0.5697474,-0.55248 1.4502661,-0.88051 0.8977837,-0.34531 2.1236038,-0.34531 1.7437719,0 3.0731829,0.48343 1.32941,0.48342 2.45164,1.0877 -0.379831,-0.48343 -0.966844,-1.1395 -0.569747,-0.67334 -1.277615,-1.31214 -0.690603,-0.63881 -1.433001,-1.05317 -0.742398,-0.43163 -1.4330012,-0.43163 -0.5870124,0 -0.8805186,0.27624 -0.2935063,0.25898 -0.2935063,0.60428 0,0.22444 0.06906,0.32803 0.086325,0.10359 0.086325,0.13812 0,0.0518 -0.06906,0.0518 -0.1553857,0 -0.5006871,-0.25898 -0.3280364,-0.25897 -0.6215426,-0.6906 -0.2935062,-0.43163 -0.2935062,-0.93231 0,-0.51796 0.3798316,-0.93232 0.3970966,-0.43162 1.2948804,-0.43162 0.7596631,0 1.5365916,0.44889 0.776928,0.43163 1.519326,1.15676 0.759663,0.70787 1.450266,1.55385 0.690603,0.82873 1.277615,1.62292 0.587013,0.79419 1.05317,1.36394 0.759663,-0.81146 1.502061,-1.36394 0.759663,-0.56975 1.467531,-0.55248 0.483422,0 1.035905,0.29351 0.569747,0.27624 1.070434,0.77692 0.517952,0.50069 0.828723,1.15676 0.328037,0.65608 0.328037,1.39847 0,0.62155 -0.345302,1.0877 -0.345301,0.46616 -1.312145,0.46616 -0.776928,0 -1.571122,-0.32804 -0.776928,-0.3453 -1.657447,-0.82872 -0.673337,0.77693 -1.381205,1.60565 -0.707868,0.81146 -1.433001,1.51933 -0.707868,0.6906 -1.415736,1.12223 -0.690603,0.44889 -1.363941,0.44889 z m 8.701596,-6.99235 q -0.500687,0 -1.070434,0.39709 -0.569747,0.37983 -1.174025,0.98411 0.379832,0.13812 0.759663,0.20718 0.397097,0.0691 0.794193,0.0691 0.863254,0 1.15676,-0.25897 0.310772,-0.25898 0.310772,-0.60428 0,-0.24171 -0.155386,-0.51795 -0.138121,-0.27624 -0.621543,-0.27624 z"
         style="stroke-width:0.43162677"
         id="path3717" />
    </g>
  </g>
</svg>
